<mxfile host="app.diagrams.net" agent="Mozilla/5.0 (Windows NT 10.0; Win64; x64) AppleWebKit/537.36 (KHTML, like Gecko) Chrome/138.0.0.0 Safari/537.36" version="28.0.7">
  <diagram name="Halaman-1" id="LMvQOUh9j4hzxK_cQ6rc">
    <mxGraphModel dx="1990" dy="575" grid="1" gridSize="10" guides="1" tooltips="1" connect="1" arrows="1" fold="1" page="1" pageScale="1" pageWidth="827" pageHeight="1169" math="0" shadow="0">
      <root>
        <mxCell id="0" />
        <mxCell id="1" parent="0" />
        <mxCell id="Ra0PG6XCyCvWoJzBlQij-28" style="rounded=0;orthogonalLoop=1;jettySize=auto;html=1;entryX=0;entryY=0.5;entryDx=0;entryDy=0;" parent="1" source="Ra0PG6XCyCvWoJzBlQij-1" target="Ra0PG6XCyCvWoJzBlQij-20" edge="1">
          <mxGeometry relative="1" as="geometry" />
        </mxCell>
        <mxCell id="Ra0PG6XCyCvWoJzBlQij-29" style="rounded=0;orthogonalLoop=1;jettySize=auto;html=1;entryX=0;entryY=0;entryDx=0;entryDy=0;" parent="1" source="Ra0PG6XCyCvWoJzBlQij-1" target="Ra0PG6XCyCvWoJzBlQij-21" edge="1">
          <mxGeometry relative="1" as="geometry" />
        </mxCell>
        <mxCell id="Ra0PG6XCyCvWoJzBlQij-1" value="User" style="shape=umlActor;verticalLabelPosition=bottom;verticalAlign=top;html=1;outlineConnect=0;" parent="1" vertex="1">
          <mxGeometry x="-110" y="336.34000000000003" width="30" height="60" as="geometry" />
        </mxCell>
        <mxCell id="Ra0PG6XCyCvWoJzBlQij-13" value="Galery Foto" style="swimlane;whiteSpace=wrap;html=1;" parent="1" vertex="1">
          <mxGeometry x="-30" y="270" width="920" height="940" as="geometry" />
        </mxCell>
        <mxCell id="ZH6OgmyAXIrNKeVsXi9l-4" style="rounded=0;orthogonalLoop=1;jettySize=auto;html=1;entryX=0.504;entryY=0.918;entryDx=0;entryDy=0;dashed=1;exitX=0.5;exitY=0;exitDx=0;exitDy=0;entryPerimeter=0;" parent="Ra0PG6XCyCvWoJzBlQij-13" source="Ra0PG6XCyCvWoJzBlQij-21" target="Ra0PG6XCyCvWoJzBlQij-20" edge="1">
          <mxGeometry relative="1" as="geometry" />
        </mxCell>
        <mxCell id="ZH6OgmyAXIrNKeVsXi9l-5" value="&lt;font style=&quot;font-size: 8px;&quot;&gt;&amp;lt;include&amp;gt;&lt;/font&gt;" style="edgeLabel;html=1;align=center;verticalAlign=middle;resizable=0;points=[];" parent="ZH6OgmyAXIrNKeVsXi9l-4" vertex="1" connectable="0">
          <mxGeometry x="-0.1168" relative="1" as="geometry">
            <mxPoint as="offset" />
          </mxGeometry>
        </mxCell>
        <mxCell id="Ra0PG6XCyCvWoJzBlQij-21" value="Login" style="ellipse;whiteSpace=wrap;html=1;" parent="Ra0PG6XCyCvWoJzBlQij-13" vertex="1">
          <mxGeometry x="100" y="112.30076923076923" width="59.48979591836735" height="32.69230769230769" as="geometry" />
        </mxCell>
        <mxCell id="Ra0PG6XCyCvWoJzBlQij-20" value="Register" style="ellipse;whiteSpace=wrap;html=1;" parent="Ra0PG6XCyCvWoJzBlQij-13" vertex="1">
          <mxGeometry x="100" y="49.99999999999999" width="59.48979591836735" height="32.69230769230769" as="geometry" />
        </mxCell>
        <mxCell id="lT50x2DqPq8mzS_wRaXP-12" style="rounded=0;orthogonalLoop=1;jettySize=auto;html=1;entryX=1;entryY=0;entryDx=0;entryDy=0;dashed=1;exitX=0;exitY=0;exitDx=0;exitDy=0;" parent="Ra0PG6XCyCvWoJzBlQij-13" source="Ra0PG6XCyCvWoJzBlQij-25" target="Ra0PG6XCyCvWoJzBlQij-21" edge="1">
          <mxGeometry relative="1" as="geometry" />
        </mxCell>
        <mxCell id="Tn2rmivhqGXLDoQjE_0v-5" value="&lt;font style=&quot;font-size: 8px;&quot;&gt;&amp;lt;include&amp;gt;&lt;/font&gt;" style="edgeLabel;html=1;align=center;verticalAlign=middle;resizable=0;points=[];" vertex="1" connectable="0" parent="lT50x2DqPq8mzS_wRaXP-12">
          <mxGeometry x="0.0198" y="-1" relative="1" as="geometry">
            <mxPoint as="offset" />
          </mxGeometry>
        </mxCell>
        <mxCell id="fL36XAihZ1vSs6-2XdUi-24" value="" style="group" parent="Ra0PG6XCyCvWoJzBlQij-13" vertex="1" connectable="0">
          <mxGeometry x="411.53334455799245" y="66.33878791551766" width="508.4695125848647" height="550.0112120844823" as="geometry" />
        </mxCell>
        <mxCell id="DF6pkft9DNyF8KNxb5iQ-16" value="" style="group" parent="fL36XAihZ1vSs6-2XdUi-24" vertex="1" connectable="0">
          <mxGeometry x="-40" y="-36.34" width="548.4695125848647" height="590.0112120844823" as="geometry" />
        </mxCell>
        <mxCell id="DF6pkft9DNyF8KNxb5iQ-2" value="" style="group" parent="DF6pkft9DNyF8KNxb5iQ-16" vertex="1" connectable="0">
          <mxGeometry x="78.0397166664973" y="47.31121208448235" width="59.48979591836735" height="32.69230769230769" as="geometry" />
        </mxCell>
        <mxCell id="lT50x2DqPq8mzS_wRaXP-34" value="Post" style="ellipse;whiteSpace=wrap;html=1;" parent="DF6pkft9DNyF8KNxb5iQ-2" vertex="1">
          <mxGeometry width="59.48979591836735" height="32.69230769230769" as="geometry" />
        </mxCell>
        <mxCell id="Ra0PG6XCyCvWoJzBlQij-24" value="Delete post" style="ellipse;whiteSpace=wrap;html=1;" parent="DF6pkft9DNyF8KNxb5iQ-16" vertex="1">
          <mxGeometry x="229.99971666649742" y="103.6619813152515" width="59.48979591836735" height="32.69230769230769" as="geometry" />
        </mxCell>
        <mxCell id="Ra0PG6XCyCvWoJzBlQij-46" style="rounded=0;orthogonalLoop=1;jettySize=auto;html=1;dashed=1;entryX=1;entryY=1;entryDx=0;entryDy=0;" parent="DF6pkft9DNyF8KNxb5iQ-16" source="Ra0PG6XCyCvWoJzBlQij-24" target="lT50x2DqPq8mzS_wRaXP-34" edge="1">
          <mxGeometry relative="1" as="geometry" />
        </mxCell>
        <mxCell id="Ra0PG6XCyCvWoJzBlQij-49" value="&lt;font style=&quot;font-size: 8px;&quot;&gt;&amp;lt;extend&amp;gt;&lt;/font&gt;" style="edgeLabel;html=1;align=center;verticalAlign=middle;resizable=0;points=[];" parent="Ra0PG6XCyCvWoJzBlQij-46" vertex="1" connectable="0">
          <mxGeometry x="0.1085" y="1" relative="1" as="geometry">
            <mxPoint x="12" as="offset" />
          </mxGeometry>
        </mxCell>
        <mxCell id="Ra0PG6XCyCvWoJzBlQij-22" value="Create post" style="ellipse;whiteSpace=wrap;html=1;" parent="DF6pkft9DNyF8KNxb5iQ-16" vertex="1">
          <mxGeometry x="199.99665544200752" y="0.002750546020770628" width="59.48979591836735" height="32.69230769230769" as="geometry" />
        </mxCell>
        <mxCell id="Ra0PG6XCyCvWoJzBlQij-44" style="rounded=0;orthogonalLoop=1;jettySize=auto;html=1;entryX=1;entryY=0;entryDx=0;entryDy=0;dashed=1;" parent="DF6pkft9DNyF8KNxb5iQ-16" source="Ra0PG6XCyCvWoJzBlQij-22" target="lT50x2DqPq8mzS_wRaXP-34" edge="1">
          <mxGeometry relative="1" as="geometry" />
        </mxCell>
        <mxCell id="Ra0PG6XCyCvWoJzBlQij-47" value="&amp;lt;extend&amp;gt;" style="edgeLabel;html=1;align=center;verticalAlign=middle;resizable=0;points=[];fontSize=8;" parent="Ra0PG6XCyCvWoJzBlQij-44" vertex="1" connectable="0">
          <mxGeometry x="0.0021" relative="1" as="geometry">
            <mxPoint x="9" y="-2" as="offset" />
          </mxGeometry>
        </mxCell>
        <mxCell id="Ra0PG6XCyCvWoJzBlQij-23" value="Edit post" style="ellipse;whiteSpace=wrap;html=1;" parent="DF6pkft9DNyF8KNxb5iQ-16" vertex="1">
          <mxGeometry x="259.48951258486477" y="47.315058238328504" width="59.48979591836735" height="32.69230769230769" as="geometry" />
        </mxCell>
        <mxCell id="Ra0PG6XCyCvWoJzBlQij-45" style="rounded=0;orthogonalLoop=1;jettySize=auto;html=1;entryX=1;entryY=0.5;entryDx=0;entryDy=0;dashed=1;" parent="DF6pkft9DNyF8KNxb5iQ-16" source="Ra0PG6XCyCvWoJzBlQij-23" target="lT50x2DqPq8mzS_wRaXP-34" edge="1">
          <mxGeometry relative="1" as="geometry" />
        </mxCell>
        <mxCell id="Ra0PG6XCyCvWoJzBlQij-48" value="&lt;font style=&quot;font-size: 8px;&quot;&gt;&amp;lt;extend&amp;gt;&lt;/font&gt;" style="edgeLabel;html=1;align=center;verticalAlign=middle;resizable=0;points=[];" parent="Ra0PG6XCyCvWoJzBlQij-45" vertex="1" connectable="0">
          <mxGeometry x="-0.1253" relative="1" as="geometry">
            <mxPoint as="offset" />
          </mxGeometry>
        </mxCell>
        <mxCell id="lT50x2DqPq8mzS_wRaXP-29" value="Comment" style="ellipse;whiteSpace=wrap;html=1;" parent="DF6pkft9DNyF8KNxb5iQ-16" vertex="1">
          <mxGeometry x="269.70000000000005" y="255.66049528802162" width="58.04222423940734" height="32.691812369322136" as="geometry" />
        </mxCell>
        <mxCell id="lT50x2DqPq8mzS_wRaXP-27" style="rounded=0;orthogonalLoop=1;jettySize=auto;html=1;entryX=0;entryY=1;entryDx=0;entryDy=0;dashed=1;" parent="DF6pkft9DNyF8KNxb5iQ-16" source="lT50x2DqPq8mzS_wRaXP-29" target="lT50x2DqPq8mzS_wRaXP-23" edge="1">
          <mxGeometry relative="1" as="geometry">
            <mxPoint x="316.9966554420075" y="339.00044285371314" as="targetPoint" />
          </mxGeometry>
        </mxCell>
        <mxCell id="lT50x2DqPq8mzS_wRaXP-28" value="&lt;font style=&quot;font-size: 8px;&quot;&gt;&amp;lt;extend&amp;gt;&lt;/font&gt;" style="edgeLabel;html=1;align=center;verticalAlign=middle;resizable=0;points=[];" parent="lT50x2DqPq8mzS_wRaXP-27" vertex="1" connectable="0">
          <mxGeometry x="0.1085" y="1" relative="1" as="geometry">
            <mxPoint x="-30" y="-19" as="offset" />
          </mxGeometry>
        </mxCell>
        <mxCell id="lT50x2DqPq8mzS_wRaXP-23" value="View feed" style="ellipse;whiteSpace=wrap;html=1;" parent="DF6pkft9DNyF8KNxb5iQ-16" vertex="1">
          <mxGeometry x="4.0097166664973525" y="118.65121208448231" width="59.48979591836735" height="32.69230769230769" as="geometry" />
        </mxCell>
        <mxCell id="DF6pkft9DNyF8KNxb5iQ-5" style="rounded=0;orthogonalLoop=1;jettySize=auto;html=1;entryX=0.5;entryY=1;entryDx=0;entryDy=0;dashed=1;exitX=0;exitY=0.5;exitDx=0;exitDy=0;" parent="DF6pkft9DNyF8KNxb5iQ-16" source="DF6pkft9DNyF8KNxb5iQ-4" target="lT50x2DqPq8mzS_wRaXP-23" edge="1">
          <mxGeometry relative="1" as="geometry">
            <mxPoint x="518.4638528867423" y="227.09519752175714" as="targetPoint" />
            <mxPoint x="658.4766554420075" y="221.35121208448237" as="sourcePoint" />
          </mxGeometry>
        </mxCell>
        <mxCell id="DF6pkft9DNyF8KNxb5iQ-6" value="&lt;font style=&quot;font-size: 8px;&quot;&gt;&amp;lt;extend&amp;gt;&lt;/font&gt;" style="edgeLabel;html=1;align=center;verticalAlign=middle;resizable=0;points=[];" parent="DF6pkft9DNyF8KNxb5iQ-5" vertex="1" connectable="0">
          <mxGeometry x="0.1085" y="1" relative="1" as="geometry">
            <mxPoint x="12" as="offset" />
          </mxGeometry>
        </mxCell>
        <mxCell id="DF6pkft9DNyF8KNxb5iQ-9" style="rounded=0;orthogonalLoop=1;jettySize=auto;html=1;entryX=1;entryY=1;entryDx=0;entryDy=0;dashed=1;exitX=0;exitY=0.5;exitDx=0;exitDy=0;" parent="DF6pkft9DNyF8KNxb5iQ-16" source="DF6pkft9DNyF8KNxb5iQ-8" target="lT50x2DqPq8mzS_wRaXP-23" edge="1">
          <mxGeometry relative="1" as="geometry">
            <mxPoint x="538.4666554420075" y="275.00121208448235" as="targetPoint" />
            <mxPoint x="589.4666554420075" y="298.00121208448235" as="sourcePoint" />
          </mxGeometry>
        </mxCell>
        <mxCell id="DF6pkft9DNyF8KNxb5iQ-10" value="&lt;font style=&quot;font-size: 8px;&quot;&gt;&amp;lt;extend&amp;gt;&lt;/font&gt;" style="edgeLabel;html=1;align=center;verticalAlign=middle;resizable=0;points=[];" parent="DF6pkft9DNyF8KNxb5iQ-9" vertex="1" connectable="0">
          <mxGeometry x="0.1085" y="1" relative="1" as="geometry">
            <mxPoint x="12" as="offset" />
          </mxGeometry>
        </mxCell>
        <mxCell id="ZH6OgmyAXIrNKeVsXi9l-13" style="rounded=0;orthogonalLoop=1;jettySize=auto;html=1;entryX=1;entryY=0;entryDx=0;entryDy=0;dashed=1;" parent="DF6pkft9DNyF8KNxb5iQ-16" source="ZH6OgmyAXIrNKeVsXi9l-12" target="lT50x2DqPq8mzS_wRaXP-23" edge="1">
          <mxGeometry relative="1" as="geometry">
            <mxPoint x="403.95665544200756" y="346.31121208448246" as="targetPoint" />
          </mxGeometry>
        </mxCell>
        <mxCell id="ZH6OgmyAXIrNKeVsXi9l-14" value="&lt;font style=&quot;font-size: 8px;&quot;&gt;&amp;lt;extend&amp;gt;&lt;/font&gt;" style="edgeLabel;html=1;align=center;verticalAlign=middle;resizable=0;points=[];" parent="ZH6OgmyAXIrNKeVsXi9l-13" vertex="1" connectable="0">
          <mxGeometry x="0.1085" y="1" relative="1" as="geometry">
            <mxPoint x="12" as="offset" />
          </mxGeometry>
        </mxCell>
        <mxCell id="ZH6OgmyAXIrNKeVsXi9l-10" style="rounded=0;orthogonalLoop=1;jettySize=auto;html=1;entryX=1;entryY=0.5;entryDx=0;entryDy=0;dashed=1;" parent="DF6pkft9DNyF8KNxb5iQ-16" source="ZH6OgmyAXIrNKeVsXi9l-9" target="lT50x2DqPq8mzS_wRaXP-23" edge="1">
          <mxGeometry relative="1" as="geometry">
            <mxPoint x="368.46665544200755" y="332.3112120844823" as="targetPoint" />
          </mxGeometry>
        </mxCell>
        <mxCell id="ZH6OgmyAXIrNKeVsXi9l-11" value="&lt;font style=&quot;font-size: 8px;&quot;&gt;&amp;lt;extend&amp;gt;&lt;/font&gt;" style="edgeLabel;html=1;align=center;verticalAlign=middle;resizable=0;points=[];" parent="ZH6OgmyAXIrNKeVsXi9l-10" vertex="1" connectable="0">
          <mxGeometry x="0.1085" y="1" relative="1" as="geometry">
            <mxPoint x="40" y="-2" as="offset" />
          </mxGeometry>
        </mxCell>
        <mxCell id="lT50x2DqPq8mzS_wRaXP-24" style="rounded=0;orthogonalLoop=1;jettySize=auto;html=1;entryX=0;entryY=1;entryDx=0;entryDy=0;dashed=1;" parent="DF6pkft9DNyF8KNxb5iQ-16" source="lT50x2DqPq8mzS_wRaXP-26" target="lT50x2DqPq8mzS_wRaXP-23" edge="1">
          <mxGeometry relative="1" as="geometry">
            <mxPoint x="297.95665544200756" y="346.3104428537132" as="targetPoint" />
          </mxGeometry>
        </mxCell>
        <mxCell id="lT50x2DqPq8mzS_wRaXP-25" value="&lt;font style=&quot;font-size: 8px;&quot;&gt;&amp;lt;extend&amp;gt;&lt;/font&gt;" style="edgeLabel;html=1;align=center;verticalAlign=middle;resizable=0;points=[];" parent="lT50x2DqPq8mzS_wRaXP-24" vertex="1" connectable="0">
          <mxGeometry x="0.1085" y="1" relative="1" as="geometry">
            <mxPoint x="12" as="offset" />
          </mxGeometry>
        </mxCell>
        <mxCell id="ZH6OgmyAXIrNKeVsXi9l-12" value="Reply" style="ellipse;whiteSpace=wrap;html=1;" parent="DF6pkft9DNyF8KNxb5iQ-16" vertex="1">
          <mxGeometry x="129.48971666649737" y="103.66121208448229" width="59.48979591836735" height="32.69230769230769" as="geometry" />
        </mxCell>
        <mxCell id="ZH6OgmyAXIrNKeVsXi9l-9" value="Report" style="ellipse;whiteSpace=wrap;html=1;" parent="DF6pkft9DNyF8KNxb5iQ-16" vertex="1">
          <mxGeometry x="279.9975766449007" y="142.69000000000005" width="58.04222423940734" height="32.691812369322136" as="geometry" />
        </mxCell>
        <mxCell id="lT50x2DqPq8mzS_wRaXP-26" value="Like/unlike&lt;span style=&quot;color: rgba(0, 0, 0, 0); font-family: monospace; font-size: 0px; text-align: start; text-wrap-mode: nowrap;&quot;&gt;%3CmxGraphModel%3E%3Croot%3E%3CmxCell%20id%3D%220%22%2F%3E%3CmxCell%20id%3D%221%22%20parent%3D%220%22%2F%3E%3CmxCell%20id%3D%222%22%20style%3D%22rounded%3D0%3BorthogonalLoop%3D1%3BjettySize%3Dauto%3Bhtml%3D1%3BentryX%3D1%3BentryY%3D0.5%3BentryDx%3D0%3BentryDy%3D0%3Bdashed%3D1%3B%22%20edge%3D%221%22%20source%3D%224%22%20parent%3D%221%22%3E%3CmxGeometry%20relative%3D%221%22%20as%3D%22geometry%22%3E%3CmxPoint%20x%3D%22469%22%20y%3D%22104%22%20as%3D%22targetPoint%22%2F%3E%3C%2FmxGeometry%3E%3C%2FmxCell%3E%3CmxCell%20id%3D%223%22%20value%3D%22%26lt%3Bfont%20style%3D%26quot%3Bfont-size%3A%208px%3B%26quot%3B%26gt%3B%26amp%3Blt%3Bextend%26amp%3Bgt%3B%26lt%3B%2Ffont%26gt%3B%22%20style%3D%22edgeLabel%3Bhtml%3D1%3Balign%3Dcenter%3BverticalAlign%3Dmiddle%3Bresizable%3D0%3Bpoints%3D%5B%5D%3B%22%20vertex%3D%221%22%20connectable%3D%220%22%20parent%3D%222%22%3E%3CmxGeometry%20x%3D%220.1085%22%20y%3D%221%22%20relative%3D%221%22%20as%3D%22geometry%22%3E%3CmxPoint%20x%3D%2212%22%20as%3D%22offset%22%2F%3E%3C%2FmxGeometry%3E%3C%2FmxCell%3E%3CmxCell%20id%3D%224%22%20value%3D%22Delete%20post%22%20style%3D%22ellipse%3BwhiteSpace%3Dwrap%3Bhtml%3D1%3B%22%20vertex%3D%221%22%20parent%3D%221%22%3E%3CmxGeometry%20x%3D%22550.0030612244898%22%20y%3D%2287.31076923076921%22%20width%3D%2259.48979591836735%22%20height%3D%2232.69230769230769%22%20as%3D%22geometry%22%2F%3E%3C%2FmxCell%3E%3C%2Froot%3E%3C%2FmxGraphModel%3E/&lt;/span&gt;" style="ellipse;whiteSpace=wrap;html=1;" parent="DF6pkft9DNyF8KNxb5iQ-16" vertex="1">
          <mxGeometry x="361.95600538783646" y="243.66106057392207" width="58.04222423940734" height="32.691812369322136" as="geometry" />
        </mxCell>
        <mxCell id="DF6pkft9DNyF8KNxb5iQ-4" value="&lt;font style=&quot;font-size: 8px;&quot;&gt;Follow/unfollow user&lt;/font&gt;" style="ellipse;whiteSpace=wrap;html=1;" parent="DF6pkft9DNyF8KNxb5iQ-16" vertex="1">
          <mxGeometry x="419.9997166664973" y="206.35121208448234" width="66.47" height="40" as="geometry" />
        </mxCell>
        <mxCell id="DF6pkft9DNyF8KNxb5iQ-8" value="Tag user" style="ellipse;whiteSpace=wrap;html=1;" parent="DF6pkft9DNyF8KNxb5iQ-16" vertex="1">
          <mxGeometry x="349.99971666649736" y="173.66121208448234" width="59.48979591836735" height="32.69230769230769" as="geometry" />
        </mxCell>
        <mxCell id="fL36XAihZ1vSs6-2XdUi-9" value="View Liked Post" style="ellipse;whiteSpace=wrap;html=1;" parent="DF6pkft9DNyF8KNxb5iQ-16" vertex="1">
          <mxGeometry x="369.9966554420075" y="363.6612120844823" width="60" height="37.69" as="geometry" />
        </mxCell>
        <mxCell id="fL36XAihZ1vSs6-2XdUi-12" value="&lt;font style=&quot;font-size: 10px;&quot;&gt;View Followers/&lt;/font&gt;&lt;div&gt;&lt;font style=&quot;font-size: 10px;&quot;&gt;Following&lt;/font&gt;&lt;/div&gt;" style="ellipse;whiteSpace=wrap;html=1;" parent="DF6pkft9DNyF8KNxb5iQ-16" vertex="1">
          <mxGeometry x="318.98" y="300.00000000000006" width="77" height="46.34" as="geometry" />
        </mxCell>
        <mxCell id="fL36XAihZ1vSs6-2XdUi-15" value="&lt;font&gt;View replies&lt;/font&gt;" style="ellipse;whiteSpace=wrap;html=1;" parent="DF6pkft9DNyF8KNxb5iQ-16" vertex="1">
          <mxGeometry x="169.99665544200752" y="241.16121208448237" width="60" height="37.69" as="geometry" />
        </mxCell>
        <mxCell id="lT50x2DqPq8mzS_wRaXP-20" value="Edit Profile" style="ellipse;whiteSpace=wrap;html=1;" parent="DF6pkft9DNyF8KNxb5iQ-16" vertex="1">
          <mxGeometry x="239.99665544200752" y="363.6612120844825" width="60" height="37.69" as="geometry" />
        </mxCell>
        <mxCell id="ZH6OgmyAXIrNKeVsXi9l-3" value="Banned User" style="ellipse;whiteSpace=wrap;html=1;" parent="DF6pkft9DNyF8KNxb5iQ-16" vertex="1">
          <mxGeometry x="318.97665544200754" y="80.01121208448241" width="70" height="40" as="geometry" />
        </mxCell>
        <mxCell id="fL36XAihZ1vSs6-2XdUi-46" style="rounded=0;orthogonalLoop=1;jettySize=auto;html=1;entryX=1;entryY=0.5;entryDx=0;entryDy=0;dashed=1;" parent="Ra0PG6XCyCvWoJzBlQij-13" source="fL36XAihZ1vSs6-2XdUi-30" target="Ra0PG6XCyCvWoJzBlQij-21" edge="1">
          <mxGeometry relative="1" as="geometry" />
        </mxCell>
        <mxCell id="Tn2rmivhqGXLDoQjE_0v-4" value="&lt;font style=&quot;font-size: 8px;&quot;&gt;&amp;lt;include&amp;gt;&lt;/font&gt;" style="edgeLabel;html=1;align=center;verticalAlign=middle;resizable=0;points=[];" vertex="1" connectable="0" parent="fL36XAihZ1vSs6-2XdUi-46">
          <mxGeometry x="-0.4786" y="1" relative="1" as="geometry">
            <mxPoint as="offset" />
          </mxGeometry>
        </mxCell>
        <mxCell id="fL36XAihZ1vSs6-2XdUi-30" value="Notification" style="ellipse;whiteSpace=wrap;html=1;" parent="Ra0PG6XCyCvWoJzBlQij-13" vertex="1">
          <mxGeometry x="270" y="150" width="70" height="40" as="geometry" />
        </mxCell>
        <mxCell id="Ra0PG6XCyCvWoJzBlQij-25" value="Home" style="ellipse;whiteSpace=wrap;html=1;" parent="Ra0PG6XCyCvWoJzBlQij-13" vertex="1">
          <mxGeometry x="269.99632653061224" y="112.29769230769229" width="59.48979591836735" height="32.69230769230769" as="geometry" />
        </mxCell>
        <mxCell id="lT50x2DqPq8mzS_wRaXP-32" style="rounded=0;orthogonalLoop=1;jettySize=auto;html=1;entryX=0.5;entryY=0;entryDx=0;entryDy=0;dashed=1;exitX=0;exitY=0;exitDx=0;exitDy=0;" parent="Ra0PG6XCyCvWoJzBlQij-13" source="lT50x2DqPq8mzS_wRaXP-34" target="Ra0PG6XCyCvWoJzBlQij-25" edge="1">
          <mxGeometry relative="1" as="geometry">
            <mxPoint x="593.72" y="160.3492307692307" as="targetPoint" />
            <mxPoint x="859.49" y="190.95999999999998" as="sourcePoint" />
          </mxGeometry>
        </mxCell>
        <mxCell id="lT50x2DqPq8mzS_wRaXP-33" value="&lt;font style=&quot;font-size: 8px;&quot;&gt;&amp;lt;extend&amp;gt;&lt;/font&gt;" style="edgeLabel;html=1;align=center;verticalAlign=middle;resizable=0;points=[];" parent="lT50x2DqPq8mzS_wRaXP-32" vertex="1" connectable="0">
          <mxGeometry x="0.1085" y="1" relative="1" as="geometry">
            <mxPoint x="12" as="offset" />
          </mxGeometry>
        </mxCell>
        <mxCell id="lT50x2DqPq8mzS_wRaXP-21" style="rounded=0;orthogonalLoop=1;jettySize=auto;html=1;entryX=1;entryY=1;entryDx=0;entryDy=0;dashed=1;exitX=0;exitY=0.5;exitDx=0;exitDy=0;" parent="Ra0PG6XCyCvWoJzBlQij-13" source="lT50x2DqPq8mzS_wRaXP-23" target="Ra0PG6XCyCvWoJzBlQij-25" edge="1">
          <mxGeometry relative="1" as="geometry">
            <mxPoint x="666" y="403.0292307692308" as="targetPoint" />
          </mxGeometry>
        </mxCell>
        <mxCell id="lT50x2DqPq8mzS_wRaXP-22" value="&lt;font style=&quot;font-size: 8px;&quot;&gt;&amp;lt;extend&amp;gt;&lt;/font&gt;" style="edgeLabel;html=1;align=center;verticalAlign=middle;resizable=0;points=[];" parent="lT50x2DqPq8mzS_wRaXP-21" vertex="1" connectable="0">
          <mxGeometry x="0.1085" y="1" relative="1" as="geometry">
            <mxPoint x="12" as="offset" />
          </mxGeometry>
        </mxCell>
        <mxCell id="Tn2rmivhqGXLDoQjE_0v-2" value="Message" style="ellipse;whiteSpace=wrap;html=1;" vertex="1" parent="Ra0PG6XCyCvWoJzBlQij-13">
          <mxGeometry x="270" y="200" width="70" height="40" as="geometry" />
        </mxCell>
        <mxCell id="Tn2rmivhqGXLDoQjE_0v-1" style="rounded=0;orthogonalLoop=1;jettySize=auto;html=1;entryX=0.925;entryY=0.762;entryDx=0;entryDy=0;dashed=1;entryPerimeter=0;" edge="1" parent="Ra0PG6XCyCvWoJzBlQij-13" source="Tn2rmivhqGXLDoQjE_0v-2" target="Ra0PG6XCyCvWoJzBlQij-21">
          <mxGeometry relative="1" as="geometry">
            <mxPoint x="220" y="160" as="targetPoint" />
          </mxGeometry>
        </mxCell>
        <mxCell id="Tn2rmivhqGXLDoQjE_0v-3" value="&lt;font style=&quot;font-size: 8px;&quot;&gt;&amp;lt;include&amp;gt;&lt;/font&gt;" style="edgeLabel;html=1;align=center;verticalAlign=middle;resizable=0;points=[];" vertex="1" connectable="0" parent="Tn2rmivhqGXLDoQjE_0v-1">
          <mxGeometry x="0.4223" y="-2" relative="1" as="geometry">
            <mxPoint as="offset" />
          </mxGeometry>
        </mxCell>
        <mxCell id="ZH6OgmyAXIrNKeVsXi9l-8" style="rounded=0;orthogonalLoop=1;jettySize=auto;html=1;entryX=1;entryY=0.5;entryDx=0;entryDy=0;" parent="1" source="ZH6OgmyAXIrNKeVsXi9l-2" target="ZH6OgmyAXIrNKeVsXi9l-3" edge="1">
          <mxGeometry relative="1" as="geometry" />
        </mxCell>
        <mxCell id="ZH6OgmyAXIrNKeVsXi9l-2" value="Moderator" style="shape=umlActor;verticalLabelPosition=bottom;verticalAlign=top;html=1;outlineConnect=0;" parent="1" vertex="1">
          <mxGeometry x="930" y="370" width="30" height="60" as="geometry" />
        </mxCell>
        <mxCell id="fL36XAihZ1vSs6-2XdUi-22" value="" style="group" parent="1" vertex="1" connectable="0">
          <mxGeometry x="110" y="506.34" width="420" height="383.66999999999985" as="geometry" />
        </mxCell>
        <mxCell id="fL36XAihZ1vSs6-2XdUi-16" value="" style="group" parent="fL36XAihZ1vSs6-2XdUi-22" vertex="1" connectable="0">
          <mxGeometry x="100" y="33.66" width="320" height="350.0099999999999" as="geometry" />
        </mxCell>
        <mxCell id="lT50x2DqPq8mzS_wRaXP-3" value="Profile" style="ellipse;whiteSpace=wrap;html=1;" parent="fL36XAihZ1vSs6-2XdUi-16" vertex="1">
          <mxGeometry x="30" y="-20" width="59.48979591836735" height="32.69230769230769" as="geometry" />
        </mxCell>
        <mxCell id="fL36XAihZ1vSs6-2XdUi-57" value="Profile Setting" style="ellipse;whiteSpace=wrap;html=1;" parent="fL36XAihZ1vSs6-2XdUi-16" vertex="1">
          <mxGeometry x="31.02" y="69.99999999999987" width="59.48979591836735" height="32.69230769230769" as="geometry" />
        </mxCell>
        <mxCell id="fL36XAihZ1vSs6-2XdUi-63" style="rounded=0;orthogonalLoop=1;jettySize=auto;html=1;entryX=1;entryY=0.5;entryDx=0;entryDy=0;dashed=1;" parent="fL36XAihZ1vSs6-2XdUi-16" source="fL36XAihZ1vSs6-2XdUi-62" target="fL36XAihZ1vSs6-2XdUi-57" edge="1">
          <mxGeometry relative="1" as="geometry">
            <mxPoint x="150" y="210.0399999999999" as="targetPoint" />
          </mxGeometry>
        </mxCell>
        <mxCell id="fL36XAihZ1vSs6-2XdUi-64" value="&lt;font style=&quot;font-size: 8px;&quot;&gt;&amp;lt;extend&amp;gt;&lt;/font&gt;" style="edgeLabel;html=1;align=center;verticalAlign=middle;resizable=0;points=[];" parent="fL36XAihZ1vSs6-2XdUi-63" vertex="1" connectable="0">
          <mxGeometry x="0.1085" y="1" relative="1" as="geometry">
            <mxPoint x="6" y="-7" as="offset" />
          </mxGeometry>
        </mxCell>
        <mxCell id="fL36XAihZ1vSs6-2XdUi-62" value="Logout" style="ellipse;whiteSpace=wrap;html=1;" parent="fL36XAihZ1vSs6-2XdUi-16" vertex="1">
          <mxGeometry x="220" y="109.99999999999991" width="60" height="37.69" as="geometry" />
        </mxCell>
        <mxCell id="Tn2rmivhqGXLDoQjE_0v-7" value="Explore" style="ellipse;whiteSpace=wrap;html=1;" vertex="1" parent="fL36XAihZ1vSs6-2XdUi-16">
          <mxGeometry x="30" y="30" width="60.51" height="29" as="geometry" />
        </mxCell>
        <mxCell id="fL36XAihZ1vSs6-2XdUi-6" value="View My Post" style="ellipse;whiteSpace=wrap;html=1;" parent="fL36XAihZ1vSs6-2XdUi-22" vertex="1">
          <mxGeometry x="290" y="-4.0299999999999745" width="60" height="37.69" as="geometry" />
        </mxCell>
        <mxCell id="fL36XAihZ1vSs6-2XdUi-4" style="rounded=0;orthogonalLoop=1;jettySize=auto;html=1;entryX=0.763;entryY=0.083;entryDx=0;entryDy=0;dashed=1;entryPerimeter=0;" parent="fL36XAihZ1vSs6-2XdUi-22" source="fL36XAihZ1vSs6-2XdUi-6" target="lT50x2DqPq8mzS_wRaXP-3" edge="1">
          <mxGeometry relative="1" as="geometry">
            <mxPoint x="250" y="68.69" as="targetPoint" />
          </mxGeometry>
        </mxCell>
        <mxCell id="fL36XAihZ1vSs6-2XdUi-5" value="&lt;font style=&quot;font-size: 8px;&quot;&gt;&amp;lt;extend&amp;gt;&lt;/font&gt;" style="edgeLabel;html=1;align=center;verticalAlign=middle;resizable=0;points=[];" parent="fL36XAihZ1vSs6-2XdUi-4" vertex="1" connectable="0">
          <mxGeometry x="0.1085" y="1" relative="1" as="geometry">
            <mxPoint x="6" y="-7" as="offset" />
          </mxGeometry>
        </mxCell>
        <mxCell id="lT50x2DqPq8mzS_wRaXP-6" style="rounded=0;orthogonalLoop=1;jettySize=auto;html=1;entryX=0.704;entryY=0.955;entryDx=0;entryDy=0;dashed=1;exitX=0;exitY=0;exitDx=0;exitDy=0;entryPerimeter=0;" parent="1" source="lT50x2DqPq8mzS_wRaXP-3" target="Ra0PG6XCyCvWoJzBlQij-21" edge="1">
          <mxGeometry relative="1" as="geometry" />
        </mxCell>
        <mxCell id="lT50x2DqPq8mzS_wRaXP-8" value="&lt;font style=&quot;font-size: 8px;&quot;&gt;&amp;lt;include&amp;gt;&lt;/font&gt;" style="edgeLabel;html=1;align=center;verticalAlign=middle;resizable=0;points=[];" parent="lT50x2DqPq8mzS_wRaXP-6" vertex="1" connectable="0">
          <mxGeometry x="0.0576" relative="1" as="geometry">
            <mxPoint as="offset" />
          </mxGeometry>
        </mxCell>
        <mxCell id="fL36XAihZ1vSs6-2XdUi-7" style="rounded=0;orthogonalLoop=1;jettySize=auto;html=1;entryX=1;entryY=1;entryDx=0;entryDy=0;dashed=1;exitX=0;exitY=0.5;exitDx=0;exitDy=0;" parent="1" source="fL36XAihZ1vSs6-2XdUi-9" target="lT50x2DqPq8mzS_wRaXP-3" edge="1">
          <mxGeometry relative="1" as="geometry">
            <mxPoint x="360" y="637.3399999999999" as="targetPoint" />
          </mxGeometry>
        </mxCell>
        <mxCell id="fL36XAihZ1vSs6-2XdUi-8" value="&lt;font style=&quot;font-size: 8px;&quot;&gt;&amp;lt;extend&amp;gt;&lt;/font&gt;" style="edgeLabel;html=1;align=center;verticalAlign=middle;resizable=0;points=[];" parent="fL36XAihZ1vSs6-2XdUi-7" vertex="1" connectable="0">
          <mxGeometry x="0.1085" y="1" relative="1" as="geometry">
            <mxPoint x="-1" y="5" as="offset" />
          </mxGeometry>
        </mxCell>
        <mxCell id="fL36XAihZ1vSs6-2XdUi-10" style="rounded=0;orthogonalLoop=1;jettySize=auto;html=1;entryX=1;entryY=1;entryDx=0;entryDy=0;dashed=1;" parent="1" source="fL36XAihZ1vSs6-2XdUi-12" target="lT50x2DqPq8mzS_wRaXP-3" edge="1">
          <mxGeometry relative="1" as="geometry">
            <mxPoint x="412" y="625" as="targetPoint" />
          </mxGeometry>
        </mxCell>
        <mxCell id="fL36XAihZ1vSs6-2XdUi-11" value="&lt;font style=&quot;font-size: 8px;&quot;&gt;&amp;lt;extend&amp;gt;&lt;/font&gt;" style="edgeLabel;html=1;align=center;verticalAlign=middle;resizable=0;points=[];" parent="fL36XAihZ1vSs6-2XdUi-10" vertex="1" connectable="0">
          <mxGeometry x="0.1085" y="1" relative="1" as="geometry">
            <mxPoint x="-1" y="5" as="offset" />
          </mxGeometry>
        </mxCell>
        <mxCell id="fL36XAihZ1vSs6-2XdUi-13" style="rounded=0;orthogonalLoop=1;jettySize=auto;html=1;entryX=1;entryY=0.5;entryDx=0;entryDy=0;dashed=1;" parent="1" source="fL36XAihZ1vSs6-2XdUi-15" target="lT50x2DqPq8mzS_wRaXP-3" edge="1">
          <mxGeometry relative="1" as="geometry">
            <mxPoint x="603.7448979591836" y="614.0323076923078" as="targetPoint" />
          </mxGeometry>
        </mxCell>
        <mxCell id="fL36XAihZ1vSs6-2XdUi-14" value="&lt;font style=&quot;font-size: 8px;&quot;&gt;&amp;lt;extend&amp;gt;&lt;/font&gt;" style="edgeLabel;html=1;align=center;verticalAlign=middle;resizable=0;points=[];" parent="fL36XAihZ1vSs6-2XdUi-13" vertex="1" connectable="0">
          <mxGeometry x="0.1085" y="1" relative="1" as="geometry">
            <mxPoint x="-1" y="5" as="offset" />
          </mxGeometry>
        </mxCell>
        <mxCell id="lT50x2DqPq8mzS_wRaXP-18" style="rounded=0;orthogonalLoop=1;jettySize=auto;html=1;entryX=0.5;entryY=1;entryDx=0;entryDy=0;dashed=1;" parent="1" source="lT50x2DqPq8mzS_wRaXP-20" target="lT50x2DqPq8mzS_wRaXP-3" edge="1">
          <mxGeometry relative="1" as="geometry">
            <mxPoint x="-24.75" y="827.0692307692309" as="targetPoint" />
          </mxGeometry>
        </mxCell>
        <mxCell id="lT50x2DqPq8mzS_wRaXP-19" value="&lt;font style=&quot;font-size: 8px;&quot;&gt;&amp;lt;extend&amp;gt;&lt;/font&gt;" style="edgeLabel;html=1;align=center;verticalAlign=middle;resizable=0;points=[];" parent="lT50x2DqPq8mzS_wRaXP-18" vertex="1" connectable="0">
          <mxGeometry x="0.1085" y="1" relative="1" as="geometry">
            <mxPoint x="-1" y="5" as="offset" />
          </mxGeometry>
        </mxCell>
        <mxCell id="fL36XAihZ1vSs6-2XdUi-65" style="rounded=0;orthogonalLoop=1;jettySize=auto;html=1;entryX=0.5;entryY=1;entryDx=0;entryDy=0;dashed=1;exitX=0;exitY=0;exitDx=0;exitDy=0;" parent="1" source="fL36XAihZ1vSs6-2XdUi-57" target="Ra0PG6XCyCvWoJzBlQij-21" edge="1">
          <mxGeometry relative="1" as="geometry">
            <mxPoint x="50" y="567.69" as="targetPoint" />
          </mxGeometry>
        </mxCell>
        <mxCell id="fL36XAihZ1vSs6-2XdUi-66" value="&lt;font style=&quot;font-size: 8px;&quot;&gt;&amp;lt;include&amp;gt;&lt;/font&gt;" style="edgeLabel;html=1;align=center;verticalAlign=middle;resizable=0;points=[];" parent="fL36XAihZ1vSs6-2XdUi-65" vertex="1" connectable="0">
          <mxGeometry x="0.0576" relative="1" as="geometry">
            <mxPoint as="offset" />
          </mxGeometry>
        </mxCell>
        <mxCell id="Tn2rmivhqGXLDoQjE_0v-6" style="rounded=0;orthogonalLoop=1;jettySize=auto;html=1;entryX=0.5;entryY=1;entryDx=0;entryDy=0;dashed=1;" edge="1" parent="1" source="Tn2rmivhqGXLDoQjE_0v-7" target="Ra0PG6XCyCvWoJzBlQij-21">
          <mxGeometry relative="1" as="geometry">
            <mxPoint x="118.49000000000001" y="530" as="targetPoint" />
          </mxGeometry>
        </mxCell>
      </root>
    </mxGraphModel>
  </diagram>
</mxfile>
